# Simple cube OBJ file
# 8 vertices, 6 quad faces
mtllib cube.mtl

o Cube
v  1.0  1.0 -1.0
v  1.0 -1.0 -1.0
v  1.0  1.0  1.0
v  1.0 -1.0  1.0
v -1.0  1.0 -1.0
v -1.0 -1.0 -1.0
v -1.0  1.0  1.0
v -1.0 -1.0  1.0

vn  1.0  0.0  0.0
vn -1.0  0.0  0.0
vn  0.0  1.0  0.0
vn  0.0 -1.0  0.0
vn  0.0  0.0  1.0
vn  0.0  0.0 -1.0

vt 0.0 0.0
vt 1.0 0.0
vt 1.0 1.0
vt 0.0 1.0

usemtl CubeMaterial
s 1
f 1/1/1 3/2/1 4/3/1 2/4/1
f 5/1/2 6/2/2 8/3/2 7/4/2
f 1/1/3 5/2/3 7/3/3 3/4/3
f 2/1/4 4/2/4 8/3/4 6/4/4
f 3/1/5 7/2/5 8/3/5 4/4/5
f 1/1/6 2/2/6 6/3/6 5/4/6
