<svg width="64" height="64" viewBox="0 0 64 64" fill="none" xmlns="http://www.w3.org/2000/svg">
  <rect width="64" height="64" rx="18" fill="#1E140F"/>
  <path d="M14 47L23.5 18H31.2L40.8 47H34.7L32.4 39.6H22.3L20.2 47H14ZM24.1 34.2H30.4L27.2 23.6L24.1 34.2Z" fill="#FF8B3D"/>
  <path d="M43 47V18H50.3C53.6 18 56.2 18.8 58 20.5C59.8 22.1 60.7 24.4 60.7 27.4C60.7 30.3 59.7 32.6 57.8 34.2C55.9 35.8 53 36.6 49.5 36.6H48.4V47H43ZM48.4 31.3H49.5C51.1 31.3 52.2 31 53 30.3C53.8 29.6 54.2 28.5 54.2 27.1C54.2 25.8 53.8 24.8 53.1 24.1C52.4 23.4 51.3 23 49.8 23H48.4V31.3Z" fill="#F7F6F4"/>
</svg>
