<svg width="160" height="44" viewBox="0 0 160 44" fill="none" xmlns="http://www.w3.org/2000/svg">
  <rect x="1" y="1" width="42" height="42" rx="12" fill="#2A1E18" stroke="#564236"/>
  <path d="M11 31L17.5 12H23L29.5 31H24.8L23.3 26.2H17L15.6 31H11ZM18.2 22.6H22.1L20.2 16.2L18.2 22.6Z" fill="#FF8B3D"/>
  <path d="M31 31V12H36C38.1 12 39.8 12.5 41 13.5C42.2 14.5 42.8 15.9 42.8 17.8C42.8 19.6 42.1 21 40.8 22C39.5 23 37.7 23.5 35.5 23.5H34.8V31H31ZM34.8 19.8H35.5C36.5 19.8 37.3 19.6 37.8 19.1C38.3 18.7 38.6 18 38.6 17.2C38.6 16.4 38.4 15.8 37.9 15.4C37.5 15 36.8 14.8 35.9 14.8H34.8V19.8Z" fill="#F7F6F4"/>
  <path d="M59.8 30.5C57.4 30.5 55.4 29.7 53.8 28C52.2 26.4 51.4 24.3 51.4 21.9C51.4 19.5 52.2 17.5 53.8 15.9C55.5 14.2 57.6 13.4 60.1 13.4C61.7 13.4 63.1 13.7 64.4 14.3C65.6 14.9 66.7 15.7 67.7 16.9L65 19.4C63.7 17.9 62.1 17.2 60.2 17.2C58.7 17.2 57.4 17.7 56.4 18.7C55.4 19.7 54.9 21 54.9 22.5C54.9 24 55.4 25.2 56.4 26.2C57.4 27.2 58.6 27.7 60.1 27.7C61.1 27.7 61.9 27.5 62.6 27.2C63.2 26.9 63.9 26.3 64.6 25.6L67.3 28C66.3 29.3 65.2 30.2 63.9 30.8C62.6 30.4 61.2 30.5 59.8 30.5Z" fill="#F7F6F4"/>
  <path d="M72.1 30.2V13.7H84.6V17.1H75.5V20.3H83.5V23.7H75.5V26.9H84.7V30.2H72.1Z" fill="#F7F6F4"/>
  <path d="M89.2 30.2V13.7H92.4L100.1 23.8V13.7H103.5V30.2H100.6L92.6 19.8V30.2H89.2Z" fill="#F7F6F4"/>
  <path d="M112.6 30.2V17.1H107.6V13.7H121.1V17.1H116.1V30.2H112.6Z" fill="#F7F6F4"/>
  <path d="M124.7 30.2V13.7H132.2C134.3 13.7 135.9 14.2 137 15.2C137.9 16.1 138.3 17.2 138.3 18.7C138.3 19.9 138 20.9 137.4 21.8C136.8 22.6 136 23.2 134.9 23.5L138.8 30.2H134.8L131.4 24.2H128.2V30.2H124.7ZM128.2 21.1H132C132.9 21.1 133.7 20.9 134.2 20.5C134.7 20.1 135 19.5 135 18.8C135 18 134.7 17.4 134.2 17C133.7 16.7 132.9 16.5 131.9 16.5H128.2V21.1Z" fill="#F7F6F4"/>
  <path d="M147.9 30.5C145.4 30.5 143.3 29.7 141.6 28C139.9 26.3 139.1 24.2 139.1 21.9C139.1 19.6 139.9 17.5 141.6 15.8C143.3 14.1 145.4 13.3 147.9 13.3C150.4 13.3 152.6 14.1 154.2 15.8C155.9 17.5 156.8 19.6 156.8 21.9C156.8 24.2 155.9 26.3 154.2 28C152.5 29.7 150.4 30.5 147.9 30.5ZM147.9 27.7C149.4 27.7 150.7 27.2 151.7 26.2C152.7 25.2 153.2 24 153.2 22.5C153.2 21 152.7 19.7 151.7 18.7C150.7 17.7 149.4 17.2 147.9 17.2C146.4 17.2 145.1 17.7 144.1 18.7C143.1 19.7 142.7 21 142.7 22.5C142.7 24 143.1 25.2 144.1 26.2C145.1 27.2 146.4 27.7 147.9 27.7Z" fill="#F7F6F4"/>
</svg>
